<?xml version="1.0" encoding="UTF-8"?>
<svg id="Layer_1" xmlns="http://www.w3.org/2000/svg" version="1.1" viewBox="0 0 1512 774.68">
  <!-- Generator: Adobe Illustrator 30.2.1, SVG Export Plug-In . SVG Version: 2.1.1 Build 1)  -->
  <defs>
    <style>
      .st0 {
        fill: #fff;
      }

      .st1 {
        fill: #00583d;
      }

      .st2 {
        fill: #fff200;
      }
    </style>
  </defs>
  <path class="st2" d="M1043.36,351.86s1.83-22.16,30.83-28.74c29.07-6.53,13.75,19.59,13.4,41.34-.38,21.77-7.04,86.01,18.33,41.32,25.37-44.64-8.19-84.56,43.6-96.22,0,0,15.17-6.39,15.55,13.31.48,19.77,5.15,88.7,5.15,88.7,0,0-.19,23.52,14.95,6.82,15.31-16.57,15.08,22.06-3.56,33.75-18.66,11.68-51.25,17.85-50.99-51.57,0,0-19.67,73.37-48.12,70-28.53-3.32-45.29-33.98-39.14-118.71Z"/>
  <path class="st1" d="M1043.36,351.86l.5.04v-.05c.07-.6.74-6.1,4.85-12.21,4.12-6.11,11.66-12.86,25.59-16.02,3.07-.69,5.62-1.01,7.73-1.01,1.87,0,3.39.25,4.61.71,1.82.69,2.98,1.8,3.73,3.33.75,1.52,1.06,3.48,1.06,5.76,0,4.15-1.03,9.35-2.1,14.9-1.06,5.56-2.16,11.48-2.25,17.15-.14,7.72-1.07,20.85-1.07,32.56,0,6.52.29,12.6,1.17,17.09.45,2.25,1.04,4.1,1.86,5.44.41.67.88,1.21,1.44,1.6.55.38,1.2.6,1.88.6.86,0,1.77-.32,2.74-.94,2.9-1.86,6.5-6.44,11.24-14.78,12.76-22.46,10.7-43.74,11.95-60.69.62-8.48,2.07-15.85,6.52-21.81,4.44-5.96,11.92-10.59,24.8-13.49h.04s.04-.03.04-.03l.09-.04c.46-.18,2.52-.92,4.94-.91,2.13,0,4.5.56,6.38,2.52s3.33,5.39,3.45,11.29c.48,19.8,5.15,88.72,5.15,88.73l.5-.03h-.5s0,.04,0,.04c0,.41.02,3.63.79,6.8.39,1.58.96,3.16,1.85,4.38.88,1.22,2.15,2.1,3.79,2.09,1.2,0,2.55-.45,4.09-1.43,1.54-.98,3.29-2.51,5.29-4.72,1.29-1.4,2.46-2.39,3.5-3.01,1.03-.63,1.92-.89,2.64-.89.64,0,1.17.19,1.65.55.72.54,1.32,1.53,1.72,2.87s.62,3.03.62,4.93c0,4.47-1.16,10.11-3.54,15.37-2.38,5.27-5.97,10.15-10.78,13.16-6.24,3.91-14.04,7.18-21.56,7.17-3.68,0-7.28-.77-10.64-2.62-5.03-2.77-9.53-7.98-12.78-16.77-3.25-8.79-5.25-21.14-5.25-38.11v-.81l-.98-.13s-.07.27-.22.78c-1.08,3.83-6.15,21.15-14.14,37.46-4,8.16-8.72,16.07-14.02,21.91-5.3,5.85-11.14,9.59-17.36,9.58-.61,0-1.23-.04-1.85-.11-6.07-.71-11.57-2.66-16.43-6.12-7.29-5.19-13.17-13.8-17.23-26.81-4.06-13-6.28-30.38-6.28-53.02,0-9.74.41-20.46,1.27-32.22h0s0,0,0,0l-.49-.03-.5-.04c-.86,11.78-1.27,22.52-1.27,32.29,0,30.28,3.96,51.24,11.04,65.06,3.54,6.91,7.88,12.02,12.89,15.59s10.69,5.58,16.9,6.3c.66.08,1.31.12,1.96.12,3.54,0,6.92-1.13,10.12-3.09,5.6-3.42,10.65-9.35,15.11-16.3,13.37-20.86,21.46-51.07,21.47-51.09l-.48-.13h-.5v.81c0,22.73,3.55,37.31,9.04,46.27,2.75,4.48,5.99,7.55,9.51,9.49s7.3,2.75,11.12,2.75c7.81,0,15.75-3.36,22.09-7.32,5.03-3.16,8.72-8.2,11.16-13.6,2.44-5.4,3.63-11.15,3.63-15.78,0-2.63-.38-4.91-1.18-6.58-.4-.84-.91-1.53-1.55-2.02s-1.41-.76-2.25-.76c-.97,0-2.03.34-3.16,1.04-1.14.69-2.37,1.74-3.71,3.19-1.96,2.17-3.66,3.64-5.09,4.55-1.44.92-2.61,1.28-3.56,1.28-1.28-.01-2.21-.63-2.98-1.68-1.16-1.57-1.8-4.09-2.11-6.28-.32-2.18-.33-4.03-.33-4.31v-.07s-.07-1.08-.2-3c-.9-13.46-4.53-68.41-4.94-85.68-.11-6.04-1.61-9.76-3.73-11.96-2.12-2.21-4.8-2.83-7.1-2.82-2.99,0-5.38,1.02-5.42,1.03l.19.46-.11-.49c-13.01,2.93-20.76,7.66-25.39,13.87-3.47,4.65-5.16,10.09-6.05,16.11-2.66,18.08,1.69,41.54-12.49,66.49-3.13,5.52-5.77,9.36-7.97,11.8-1.1,1.22-2.08,2.08-2.94,2.63-.86.55-1.59.78-2.2.78-.49,0-.91-.14-1.32-.42-.71-.49-1.37-1.46-1.9-2.85-.81-2.09-1.35-5.08-1.68-8.61-.33-3.53-.46-7.59-.46-11.85,0-11.66.93-24.77,1.07-32.54.09-5.55,1.17-11.43,2.23-16.98,1.06-5.56,2.11-10.78,2.11-15.09,0-3.15-.56-5.85-2.19-7.79-.81-.97-1.89-1.73-3.25-2.23-1.36-.51-2.99-.77-4.96-.77-2.21,0-4.83.33-7.95,1.03-14.62,3.31-22.46,10.59-26.6,17.05s-4.61,12.08-4.62,12.13h0s0,0,0,0h.5Z"/>
  <path class="st2" d="M1043.36,351.86s1.83-22.16,30.83-28.74c29.07-6.53,13.75,19.59,13.4,41.34-.38,21.77-7.04,86.01,18.33,41.32,25.37-44.64-8.19-84.56,43.6-96.22,0,0,15.17-6.39,15.55,13.31.48,19.77,5.15,88.7,5.15,88.7,0,0-.19,23.52,14.95,6.82,15.31-16.57,15.08,22.06-3.56,33.75-18.66,11.68-51.25,17.85-50.99-51.57,0,0-19.67,73.37-48.12,70-28.53-3.32-45.29-33.98-39.14-118.71Z"/>
  <path class="st2" d="M1212.93,403.36s-8.12,45.51,18.25,35.5c26.31-10.11,23.75-48.9,41.71-76.11,18.06-27.27,19.26-26.33,21.42-3.28,2.25,23.07,10.97,17.9,15.61,16.45,4.67-1.56,22.6-1.3,10.99-92.09,0,0-3.22-20.61-20.84-6.3-17.74,14.22-41.69,68.03-41.55,50.57.11-17.31,5.99-45.54-7.49-41.74,0,0-37.71,3.47-38.3,22.43-.54,18.96.61,91.33.2,94.57Z"/>
  <path class="st1" d="M1212.93,403.36l-.49-.09s-1.19,6.65-1.19,14.33c0,5.24.54,10.96,2.43,15.44.95,2.24,2.23,4.18,3.98,5.56s3.96,2.19,6.65,2.19c2.05,0,4.39-.46,7.04-1.47,6.68-2.57,11.54-6.97,15.33-12.52,5.67-8.32,8.96-19.2,12.53-30.54,3.57-11.33,7.41-23.12,14.09-33.25,4.62-6.97,8.13-12.1,10.82-15.46,1.34-1.68,2.48-2.92,3.43-3.71.95-.8,1.7-1.13,2.2-1.13.24,0,.44.06.64.2.36.23.74.75,1.08,1.59.51,1.25.93,3.16,1.3,5.68s.69,5.64,1.04,9.33c.73,7.44,2.11,11.99,3.88,14.75.89,1.38,1.88,2.31,2.93,2.88,1.05.58,2.14.79,3.21.79,2.38-.01,4.62-1.05,6.24-1.55.83-.28,2.27-.53,3.9-1.37,2.45-1.27,5.31-3.92,7.5-9.99,2.2-6.07,3.78-15.58,3.79-30.73,0-12.56-1.09-28.99-3.85-50.54h0s-.45-2.92-1.95-5.84c-.75-1.46-1.77-2.94-3.15-4.06-1.38-1.13-3.14-1.89-5.29-1.89-2.99,0-6.67,1.44-11.26,5.17-3.89,3.12-8.02,8.06-12.13,13.71-6.17,8.48-12.29,18.59-17.34,26.57-2.53,3.99-4.79,7.45-6.64,9.89-.92,1.22-1.75,2.19-2.44,2.83-.34.32-.65.56-.91.71-.25.15-.45.2-.56.2-.09,0-.13-.02-.2-.07-.1-.08-.26-.33-.36-.79-.11-.46-.17-1.11-.17-1.94v-.14c.05-8.07,1.37-18.58,1.37-27.12,0-4.28-.33-8.06-1.35-10.85-.51-1.39-1.21-2.55-2.16-3.36-.95-.82-2.15-1.27-3.57-1.26-.75,0-1.55.12-2.42.37l.14.48-.05-.5s-9.48.87-19.04,4.13c-4.79,1.63-9.6,3.86-13.3,6.91-3.69,3.04-6.26,6.96-6.41,11.88-.1,3.72-.15,9.48-.15,16.36,0,22.73.44,57.76.44,71.99,0,1.74-.01,3.17-.02,4.23-.01,1.05-.04,1.75-.07,1.95l.51.05-.49-.09.49.09.5.06c.04-.32.06-.99.07-2.06.01-1.06.02-2.5.02-4.24,0-14.25-.44-49.27-.44-71.99,0-6.88.04-12.63.15-16.33.14-4.57,2.5-8.2,6.05-11.13,5.32-4.4,13.28-7.13,19.9-8.73,3.31-.8,6.29-1.32,8.44-1.64,1.07-.16,1.94-.27,2.54-.34.6-.07.92-.1.92-.1h.09c.8-.24,1.51-.34,2.15-.34,1.21,0,2.14.36,2.92,1.02,1.16.99,1.98,2.75,2.47,5.08.5,2.33.69,5.2.69,8.37,0,8.44-1.32,18.95-1.37,27.11v.15c0,1.18.1,2.05.35,2.69.12.32.29.59.53.8.23.21.55.32.85.32.49-.01.94-.23,1.42-.57.88-.64,1.88-1.75,3.05-3.26,4.05-5.26,9.97-15.33,16.46-25.36,6.48-10.02,13.54-19.99,19.72-24.94,4.49-3.65,7.98-4.95,10.63-4.95,1.91,0,3.42.66,4.66,1.66,1.85,1.5,3.06,3.82,3.78,5.77.36.97.6,1.85.75,2.49.08.32.13.57.16.75l.04.2v.06s.5-.08.5-.08l-.5.06c2.75,21.52,3.84,37.92,3.84,50.42,0,20.1-2.83,30.13-6.01,35.2-1.59,2.54-3.26,3.85-4.74,4.63-1.49.77-2.79.99-3.75,1.31-1.71.54-3.85,1.5-5.94,1.5-.93,0-1.84-.18-2.72-.67-1.32-.73-2.62-2.15-3.74-4.81-1.11-2.66-2.02-6.53-2.56-12.04-.53-5.63-1-9.95-1.68-12.91-.35-1.48-.74-2.62-1.26-3.44-.26-.41-.56-.74-.92-.98-.35-.24-.77-.36-1.2-.36-.9.01-1.81.5-2.84,1.36-1.55,1.3-3.41,3.53-5.77,6.74s-5.21,7.41-8.67,12.65c-9.04,13.71-12.89,30.25-17.78,44.58-2.44,7.16-5.14,13.77-8.83,19.19-3.7,5.42-8.38,9.66-14.86,12.15-2.57.98-4.79,1.41-6.69,1.41-2.49,0-4.45-.73-6.03-1.98-2.37-1.87-3.89-4.96-4.81-8.59-.92-3.62-1.23-7.75-1.23-11.63s.29-7.33.59-9.92c.15-1.3.29-2.36.4-3.09s.18-1.14.18-1.14h0v-.02l-.48-.09Z"/>
  <path class="st2" d="M1212.93,403.36s-8.12,45.51,18.25,35.5c26.31-10.11,23.75-48.9,41.71-76.11,18.06-27.27,19.26-26.33,21.42-3.28,2.25,23.07,10.97,17.9,15.61,16.45,4.67-1.56,22.6-1.3,10.99-92.09,0,0-3.22-20.61-20.84-6.3-17.74,14.22-41.69,68.03-41.55,50.57.11-17.31,5.99-45.54-7.49-41.74,0,0-37.71,3.47-38.3,22.43-.54,18.96.61,91.33.2,94.57Z"/>
  <path class="st2" d="M1355.21,305.75l-.95,132.96s38.48,16.36,37.95-23.75c-.61-40.08-11.79-126.95,28.26-126.95,0,0,3.3-23.71-3.13-22.71-6.49.75-23.21,13.35-24.16-8.32-.91-21.68,8-41.97,20.76-47.04,12.85-5.1,2-31.39-18.1-21.09-20.16,10.26-37,22.82-37.73,82.27,0,0-17.38-2.57-17.78,13.58-.45,16.28,4.03,19.62,14.79,18.9"/>
  <path class="st1" d="M1354.71,305.74l-.95,133.3.31.13s7.83,3.34,16.47,3.34c5.22,0,10.78-1.23,15.04-5.23s7.14-10.73,7.14-21.51v-.82c-.23-14.81-1.89-35.96-1.89-56.74,0-17.78,1.22-35.29,5.57-48.29,2.17-6.5,5.12-11.86,9.05-15.58s8.83-5.82,15.03-5.83h.43l.06-.43s.85-6.1.85-12.02c0-2.77-.18-5.49-.74-7.58-.28-1.05-.66-1.94-1.19-2.61-.53-.67-1.28-1.11-2.15-1.1-.15,0-.31.01-.46.04l.08.49-.06-.5c-1.9.23-4.41,1.32-7.15,2.34-2.74,1.03-5.69,1.98-8.27,1.97-2.17-.01-4.04-.64-5.49-2.43-1.45-1.8-2.48-4.85-2.7-9.74-.04-1.01-.06-2.02-.06-3.02,0-10.19,2.15-19.91,5.81-27.67,3.65-7.76,8.79-13.52,14.71-15.87,2.01-.8,3.5-2.11,4.46-3.71s1.41-3.48,1.41-5.44c0-3.54-1.46-7.34-4.09-10.28-2.63-2.93-6.45-5-11.12-5-2.79,0-5.87.73-9.17,2.43-10.1,5.14-19.47,10.91-26.36,22.88s-11.28,30.06-11.65,59.83h.5s.07-.48.07-.48c-.02,0-1.05-.16-2.63-.16-2.47,0-6.28.37-9.57,2.34-1.64.99-3.15,2.38-4.26,4.33-1.11,1.94-1.81,4.42-1.89,7.55-.02.74-.03,1.45-.03,2.14,0,6.65.94,10.97,3.07,13.69,1.06,1.36,2.43,2.29,4.06,2.86,1.63.58,3.51.81,5.67.81.81,0,1.66-.03,2.55-.09l-.07-1c-.87.06-1.7.09-2.49.09-2.09,0-3.87-.23-5.34-.75-2.21-.79-3.77-2.2-4.85-4.67-1.07-2.47-1.61-6.02-1.61-10.94,0-.68.01-1.38.03-2.11.07-3,.74-5.3,1.76-7.08,1.52-2.67,3.85-4.2,6.27-5.08,2.42-.88,4.92-1.08,6.7-1.08.75,0,1.38.04,1.81.07.22.02.39.04.5.05.11.01.17.02.17.02l.57.08v-.57c.37-29.69,4.77-47.6,11.52-59.34,6.76-11.74,15.88-17.37,25.95-22.49,3.18-1.63,6.11-2.32,8.72-2.32,4.37,0,7.91,1.92,10.38,4.67s3.84,6.34,3.84,9.61c0,1.8-.41,3.5-1.27,4.92s-2.15,2.57-3.97,3.3c-6.25,2.49-11.52,8.47-15.24,16.37-3.72,7.91-5.9,17.76-5.9,28.09,0,1.02.02,2.04.06,3.06.22,5,1.27,8.27,2.92,10.32,1.65,2.06,3.91,2.81,6.27,2.8,2.82,0,5.85-1.01,8.62-2.04,2.76-1.04,5.29-2.1,6.92-2.28h.02c.11-.02.21-.02.31-.02.55.01.96.23,1.38.73.61.74,1.07,2.12,1.34,3.82.27,1.69.38,3.7.38,5.74,0,2.91-.21,5.89-.42,8.13-.11,1.12-.21,2.06-.29,2.72s-.13,1.03-.13,1.03l.5.07v-.5c-6.43,0-11.63,2.22-15.72,6.1-6.14,5.83-9.84,15.3-12.05,26.65-2.2,11.35-2.88,24.58-2.88,37.95,0,20.83,1.66,42,1.89,56.76v.81c0,10.62-2.82,17.01-6.82,20.78s-9.28,4.96-14.36,4.96c-4.19,0-8.22-.82-11.19-1.63-1.49-.41-2.71-.82-3.56-1.12-.43-.15-.76-.28-.98-.37s-.34-.14-.34-.14l-.2.46h.5l.95-132.96h-1.06Z"/>
  <path class="st2" d="M1355.21,305.75l-.95,132.96s38.48,16.36,37.95-23.75c-.61-40.08-11.79-126.95,28.26-126.95,0,0,3.3-23.71-3.13-22.71-6.49.75-23.21,13.35-24.16-8.32-.91-21.68,8-41.97,20.76-47.04,12.85-5.1,2-31.39-18.1-21.09-20.16,10.26-37,22.82-37.73,82.27,0,0-17.38-2.57-17.78,13.58-.45,16.28,4.03,19.62,14.79,18.9"/>
  <path class="st2" d="M1213.8,151.06s-322.25,82.99-463.39,217.69c0,0-14.24,11.63-4.01,23.78,10.26,12.15,27.88,4.51,42.68-9.02,14.93-13.54,215.82-197.97,670.18-255.46,0,0-427.36-51.44-739.71,206.16,0,0-12.34,12.56-.82,24.89,11.58,12.26,27.78,2.75,35.5-3.99.01,0,99.64-119.23,459.57-204.05Z"/>
  <path class="st1" d="M1213.8,151.06l-.12-.48s-80.59,20.75-178.82,58.35c-98.24,37.6-214.12,92.02-284.79,159.47l.35.36-.32-.39s-1.97,1.61-3.94,4.26c-1.96,2.64-3.95,6.35-3.95,10.59,0,3.05,1.04,6.35,3.82,9.64,3.67,4.36,8.34,6.27,13.42,6.26,9.44-.01,20.3-6.4,29.98-15.23,14.88-13.5,215.66-197.85,669.91-255.34v-.99s-34.84-4.19-91.87-4.19c-142.8,0-424.86,26.27-648.22,210.46l-.02.02-.02.02s-5.86,5.93-5.88,13.81c0,3.68,1.31,7.77,5.05,11.77,4.15,4.4,8.95,6.09,13.7,6.08,8.79-.01,17.42-5.62,22.49-10.03l.03-.03.03-.03s.09-.11.29-.34c6.11-6.98,110.4-121.4,459.01-203.55l-.13-.49-.12-.48.12.48-.11-.49c-360.02,84.84-459.76,204.13-459.84,204.22l.38.32-.33-.38c-4.96,4.33-13.48,9.8-21.84,9.79-4.52-.01-8.99-1.56-12.97-5.77-3.59-3.84-4.78-7.64-4.78-11.08,0-3.68,1.39-6.97,2.8-9.33.7-1.18,1.41-2.13,1.93-2.78.26-.33.48-.58.63-.75l.17-.19.06-.06-.36-.35.32.39c223.06-183.97,504.89-210.24,647.58-210.23,28.49,0,51.43,1.05,67.25,2.09,7.91.52,14.04,1.05,18.19,1.44,2.07.2,3.65.36,4.72.47,1.06.11,1.6.18,1.6.18l.06-.5-.06-.5c-454.48,57.5-655.49,242-670.45,255.59-9.57,8.76-20.33,14.99-29.3,14.97-4.84-.01-9.15-1.76-12.66-5.91-2.64-3.13-3.58-6.18-3.58-8.99,0-3.92,1.86-7.45,3.76-9.99.94-1.27,1.89-2.3,2.6-3,.35-.35.65-.62.85-.81.1-.09.18-.16.24-.21l.08-.07h.01s.01-.02.01-.02c70.47-67.26,186.28-121.69,284.45-159.26,49.09-18.79,93.77-33.37,126.18-43.25,16.2-4.94,29.34-8.71,38.42-11.24,4.54-1.27,8.07-2.22,10.46-2.86s3.65-.96,3.65-.96l-.24-.97.12.49Z"/>
  <path class="st2" d="M1213.8,151.06s-322.25,82.99-463.39,217.69c0,0-14.24,11.63-4.01,23.78,10.26,12.15,27.88,4.51,42.68-9.02,14.93-13.54,215.82-197.97,670.18-255.46,0,0-427.36-51.44-739.71,206.16,0,0-12.34,12.56-.82,24.89,11.58,12.26,27.78,2.75,35.5-3.99.01,0,99.64-119.23,459.57-204.05Z"/>
  <path class="st2" d="M984.79,230.97s-15.31,283.47,94.95,460.69c0,0,8.83,16.83,26.87,15.78,18.03-1.05,15.24-18.12,4.38-36.54-10.82-18.28-159.22-266.68-66.76-633.87,0,0-212.37,288.32-16.4,658.73,0,0,10.44,15.96,29.16,14.1,18.73-1.92,13.26-19.03,7.89-28.44-.01-.02-106.52-138.21-80.09-450.45Z"/>
  <path class="st1" d="M984.79,230.97l-.5-.03s-.72,13.41-.72,36.21c.01,82.08,9.36,285.91,95.75,424.77l.42-.26-.44.23s2.12,4.03,6.37,8.04c4.25,4.01,10.69,8.05,19.32,8.05.54,0,1.09-.02,1.65-.05,4.71-.27,8.1-1.63,10.32-3.88s3.19-5.35,3.18-8.93c-.01-6.8-3.42-15.48-8.73-24.48-8.25-13.95-96.88-162.32-96.88-395.4,0-71.81,8.41-151.65,30.18-238.09l-.89-.42s-99.53,135.13-99.54,339.22c0,94.17,21.19,203.02,83.1,320.03v.02s.02.02.02.02c.02.03,2.38,3.63,6.87,7.24s11.13,7.23,19.69,7.23c1,0,2.02-.05,3.07-.15,5-.51,8.39-2.1,10.51-4.4,2.13-2.3,2.95-5.27,2.94-8.39-.01-5.64-2.61-11.88-5.19-16.4l-.02-.03-.02-.03s-.08-.1-.24-.31c-4.89-6.58-83.96-116.49-83.96-352.75,0-30.25,1.3-62.58,4.21-97.02l-.47-.04-.5-.03.5.03-.5-.04c-2.92,34.47-4.22,66.82-4.22,97.11,0,244.11,84.35,353.6,84.4,353.67l.4-.3-.43.25c2.53,4.42,5.06,10.57,5.05,15.9,0,2.96-.76,5.64-2.68,7.71s-5.03,3.59-9.88,4.09c-1.02.1-2.01.15-2.97.15-8.26,0-14.68-3.5-19.06-7.01-2.19-1.76-3.85-3.52-4.97-4.83-.56-.66-.98-1.21-1.26-1.59-.14-.19-.25-.34-.32-.44s-.1-.15-.1-.15l-.42.27.44-.23c-61.83-116.88-82.98-225.55-82.98-319.57,0-101.88,24.84-186.55,49.68-245.74,12.42-29.6,24.84-52.82,34.15-68.65,4.66-7.91,8.54-13.98,11.25-18.06,1.36-2.04,2.42-3.59,3.15-4.62.73-1.04,1.11-1.56,1.11-1.56l-.4-.3-.49-.12c-21.79,86.52-30.21,166.45-30.21,238.34,0,233.34,88.73,381.9,97.02,395.91,5.26,8.91,8.59,17.51,8.59,23.97,0,3.42-.91,6.21-2.9,8.23-1.99,2.02-5.11,3.32-9.66,3.58-.54.03-1.07.05-1.59.05-8.31,0-14.5-3.88-18.63-7.78-2.07-1.95-3.61-3.9-4.64-5.36-.51-.73-.9-1.34-1.15-1.76-.13-.21-.22-.38-.29-.49-.06-.11-.09-.17-.09-.17v-.02s-.02-.01-.02-.01c-86.2-138.52-95.61-342.25-95.6-424.25,0-11.39.18-20.43.36-26.62.09-3.1.18-5.48.25-7.09s.11-2.44.11-2.44l-1-.07.5.04Z"/>
  <path class="st2" d="M984.79,230.97s-15.31,283.47,94.95,460.69c0,0,8.83,16.83,26.87,15.78,18.03-1.05,15.24-18.12,4.38-36.54-10.82-18.28-159.22-266.68-66.76-633.87,0,0-212.37,288.32-16.4,658.73,0,0,10.44,15.96,29.16,14.1,18.73-1.92,13.26-19.03,7.89-28.44-.01-.02-106.52-138.21-80.09-450.45Z"/>
  <path class="st2" d="M548.57,176.71s-322.26,82.99-463.39,217.69c0,0-14.24,11.63-4.01,23.77,10.26,12.15,27.88,4.52,42.68-9.02,14.92-13.54,215.82-197.97,670.18-255.46,0,0-427.36-51.44-739.71,206.16,0,0-12.34,12.56-.82,24.88,11.58,12.26,27.78,2.76,35.5-3.98.01,0,99.64-119.23,459.57-204.04Z"/>
  <path class="st1" d="M548.57,176.71l-.12-.48s-80.59,20.75-178.82,58.35-214.12,92.03-284.79,159.47l.35.36-.32-.39s-1.97,1.61-3.94,4.26c-1.96,2.64-3.95,6.34-3.95,10.59,0,3.05,1.04,6.35,3.82,9.64,3.67,4.36,8.34,6.27,13.42,6.26,9.44-.01,20.3-6.4,29.98-15.23,14.88-13.5,215.65-197.85,669.91-255.34v-.99s-34.84-4.19-91.87-4.19c-142.8,0-424.86,26.27-648.22,210.46l-.02.02-.02.02s-5.86,5.93-5.88,13.81c0,3.68,1.31,7.77,5.05,11.77h0c4.15,4.4,8.95,6.09,13.7,6.08,8.79-.01,17.42-5.62,22.49-10.03l.03-.03.03-.03s.09-.11.29-.34c6.11-6.98,110.4-121.4,459.01-203.55l-.13-.49-.12-.48.12.48-.11-.49C188.44,261.05,88.7,380.34,88.62,380.44l.38.32-.33-.38c-4.96,4.33-13.48,9.8-21.83,9.79-4.52-.01-8.99-1.56-12.98-5.77h0c-3.59-3.84-4.78-7.65-4.78-11.08,0-3.68,1.39-6.97,2.8-9.33.7-1.18,1.41-2.13,1.93-2.78.26-.33.48-.58.63-.75l.17-.19.06-.06-.36-.35.32.39c223.07-183.97,504.9-210.24,647.59-210.24,28.49,0,51.43,1.05,67.25,2.09,7.91.52,14.04,1.05,18.19,1.44,2.07.2,3.65.36,4.72.47,1.06.11,1.6.18,1.6.18l.06-.5-.06-.5C339.5,210.69,138.49,395.19,123.53,408.78c-9.57,8.76-20.32,14.99-29.3,14.97-4.84-.01-9.15-1.76-12.66-5.91-2.64-3.13-3.58-6.18-3.58-8.99,0-3.92,1.86-7.45,3.76-9.99.95-1.27,1.89-2.3,2.6-3,.35-.35.65-.62.85-.81.1-.09.18-.16.24-.21l.08-.07h.02s.01-.02.01-.02c70.45-67.25,186.26-121.67,284.43-159.24,49.09-18.79,93.77-33.37,126.18-43.25,16.2-4.94,29.34-8.71,38.42-11.24,4.54-1.27,8.07-2.22,10.46-2.86s3.65-.96,3.65-.96l-.24-.97.12.48Z"/>
  <path class="st2" d="M548.57,176.71s-322.26,82.99-463.39,217.69c0,0-14.24,11.63-4.01,23.77,10.26,12.15,27.88,4.52,42.68-9.02,14.92-13.54,215.82-197.97,670.18-255.46,0,0-427.36-51.44-739.71,206.16,0,0-12.34,12.56-.82,24.88,11.58,12.26,27.78,2.76,35.5-3.98.01,0,99.64-119.23,459.57-204.04Z"/>
  <path class="st2" d="M319.56,256.62s-15.31,283.47,94.95,460.69c0,0,8.83,16.83,26.87,15.78,18.03-1.05,15.24-18.12,4.38-36.54-10.82-18.28-159.23-266.68-66.76-633.87,0,0-212.37,288.32-16.4,658.72,0,0,10.44,15.96,29.16,14.1,18.73-1.92,13.26-19.03,7.89-28.45-.01,0-106.52-138.19-80.09-450.43Z"/>
  <path class="st1" d="M319.56,256.62l-.5-.03s-.72,13.41-.72,36.2c.01,82.07,9.36,285.9,95.75,424.78l.42-.26-.44.23s2.12,4.03,6.37,8.04c4.25,4.01,10.69,8.05,19.32,8.05.54,0,1.09-.02,1.65-.05,4.71-.27,8.1-1.63,10.32-3.88,2.21-2.25,3.19-5.34,3.18-8.93-.01-6.8-3.42-15.48-8.73-24.48-8.25-13.94-96.88-162.31-96.88-395.4,0-71.81,8.41-151.66,30.18-238.09l-.89-.42s-99.53,135.13-99.54,339.22c0,94.17,21.19,203.02,83.1,320.03v.02s.02.02.02.02c.02.03,2.38,3.63,6.87,7.24s11.14,7.23,19.69,7.23c1,0,2.02-.05,3.07-.15,5-.51,8.39-2.1,10.51-4.4,2.13-2.3,2.94-5.27,2.94-8.39-.01-5.64-2.61-11.88-5.19-16.4l-.02-.03-.02-.03s-.08-.1-.24-.31c-4.89-6.58-83.96-116.49-83.96-352.75,0-30.25,1.3-62.58,4.21-97.02l-.47-.04-.5-.03.5.03-.5-.04c-2.92,34.47-4.22,66.82-4.22,97.1,0,244.11,84.35,353.61,84.4,353.67l.4-.31-.43.25c2.52,4.42,5.06,10.57,5.05,15.9,0,2.96-.76,5.64-2.68,7.71-1.92,2.07-5.03,3.59-9.88,4.09-1.01.1-2,.15-2.97.15-8.26,0-14.69-3.5-19.07-7.01-2.19-1.76-3.86-3.52-4.98-4.83-.56-.66-.98-1.21-1.26-1.59-.14-.19-.25-.34-.32-.44s-.1-.15-.1-.15l-.42.27.44-.23c-61.83-116.88-82.98-225.55-82.98-319.57,0-101.88,24.84-186.55,49.68-245.74,12.42-29.6,24.84-52.83,34.15-68.65,4.66-7.91,8.54-13.98,11.25-18.06,1.36-2.04,2.42-3.59,3.15-4.62.73-1.04,1.11-1.56,1.11-1.56l-.4-.3-.48-.12c-21.79,86.52-30.21,166.45-30.21,238.34,0,233.34,88.73,381.9,97.02,395.91,5.26,8.91,8.59,17.51,8.59,23.97,0,3.42-.91,6.21-2.9,8.23-1.99,2.02-5.11,3.32-9.66,3.58-.54.03-1.07.05-1.59.05-8.31,0-14.5-3.88-18.63-7.78-2.07-1.95-3.61-3.9-4.64-5.36-.51-.73-.9-1.34-1.15-1.76-.13-.21-.22-.38-.28-.49s-.09-.17-.09-.17v-.02s-.02-.01-.02-.01c-86.2-138.52-95.61-342.26-95.6-424.25,0-11.39.18-20.43.36-26.62.09-3.1.18-5.48.25-7.09s.11-2.44.11-2.44l-1-.07.5.06Z"/>
  <path class="st2" d="M319.56,256.62s-15.31,283.47,94.95,460.69c0,0,8.83,16.83,26.87,15.78,18.03-1.05,15.24-18.12,4.38-36.54-10.82-18.28-159.23-266.68-66.76-633.87,0,0-212.37,288.32-16.4,658.72,0,0,10.44,15.96,29.16,14.1,18.73-1.92,13.26-19.03,7.89-28.45-.01,0-106.52-138.19-80.09-450.43Z"/>
  <path class="st2" d="M549.05,524.2s54.65,20.78,53.11-48.55c-1.55-69.42-8.17-87.5,25.63-110.9,33.82-23.46,38.75-.85,37.01,16.2-1.77,16.94-4.83,37.27-50.61,51.62,0,0-10.22,3.13-7.04,13.35,3.12,10.3,13.14,16.57,39.73,3.98,26.57-12.64,83.66-41.53,58.55-108.5-25.13-66.88-80.77-33.39-97.42,7.95,0,0-9.85,18.95-7.53,2.45,2.37-16.57,11.67-35.94-11.06-35.66-22.73.38-38.5-2.97-40.63,51.04-2.22,53.97-12.63,149.9.26,157.02Z"/>
  <path class="st1" d="M549.05,524.2l-.18.47s7.75,2.95,17.38,2.95c7.84,0,16.98-1.96,24.15-9.14,7.17-7.17,12.3-19.48,12.3-39.99,0-.93-.01-1.89-.03-2.85-.51-22.72-1.56-39.94-1.56-53.62s1.11-24.38,5.02-33.1c3.91-8.72,10.62-15.92,21.95-23.76,10.36-7.19,17.96-9.99,23.37-9.98,2.56,0,4.63.62,6.33,1.68,2.53,1.6,4.24,4.25,5.32,7.48s1.51,7.03,1.51,10.85c0,1.92-.11,3.85-.3,5.71-.88,8.47-2.08,17.66-8.71,26.53-6.62,8.88-18.72,17.5-41.56,24.65-.03.01-1.99.61-3.98,2.16-1.99,1.54-4.02,4.1-4.02,7.91,0,1.19.2,2.49.64,3.91.96,3.18,2.59,6.03,5.16,8.07,2.57,2.05,6.07,3.27,10.69,3.27,6.04,0,14.02-2.06,24.57-7.06,10.99-5.23,27.23-13.25,40.75-25.62s24.32-29.16,24.32-51.82c0-9.5-1.9-20.03-6.27-31.69-5.19-13.8-11.68-23.38-18.9-29.53-7.22-6.14-15.18-8.82-23.19-8.82-11.49,0-23.09,5.47-33.04,13.98-9.96,8.51-18.28,20.06-23.22,32.31l.46.19-.44-.23s-.07.14-.21.39c-.47.87-1.67,3.06-2.98,5.02-.65.98-1.33,1.9-1.94,2.55-.3.33-.59.59-.83.75-.24.17-.43.22-.5.22l-.09-.03s-.17-.21-.26-.56-.14-.87-.14-1.57c0-.98.11-2.3.35-4.02,1.13-7.93,3.89-16.57,3.9-23.46,0-3.65-.79-6.88-3.12-9.18s-6.1-3.59-11.85-3.59h-.49c-5.67.1-10.93-.05-15.69.54-3.57.44-6.87,1.3-9.83,2.99-4.44,2.54-8.06,6.97-10.69,14.52s-4.31,18.25-4.91,33.47c-1.4,34.08-6.08,84.93-6.08,119.58,0,10.1.4,18.83,1.39,25.39.5,3.28,1.15,6.02,1.99,8.14.84,2.11,1.86,3.62,3.22,4.38l.03.02h.03s.18-.46.18-.46l.24-.44c-1.02-.56-1.98-1.86-2.77-3.87-1.19-3.01-2.03-7.53-2.56-13.17-.53-5.65-.75-12.43-.75-19.98,0-34.58,4.67-85.42,6.08-119.54.53-13.48,1.92-23.36,4.03-30.59,1.59-5.42,3.58-9.34,5.92-12.18,3.51-4.26,7.81-6.13,12.88-7,5.07-.86,10.89-.68,17.3-.79h.47c5.62,0,9.09,1.26,11.15,3.3,2.06,2.04,2.82,4.94,2.82,8.47.01,6.65-2.73,15.29-3.89,23.32-.25,1.75-.36,3.11-.36,4.16,0,.99.09,1.7.31,2.24.11.27.25.49.46.66.2.17.47.26.73.26.45-.01.83-.22,1.21-.5.66-.5,1.33-1.29,2.02-2.22,2.05-2.77,4.11-6.74,4.11-6.75v-.02s.02-.02.02-.02c4.87-12.1,13.11-23.53,22.94-31.93s21.23-13.74,32.39-13.74c7.79,0,15.49,2.59,22.54,8.58,7.06,6,13.47,15.43,18.61,29.12,4.34,11.56,6.21,21.97,6.21,31.34,0,22.33-10.61,38.82-23.99,51.08-13.38,12.26-29.53,20.24-40.51,25.46-10.47,4.96-18.33,6.96-24.14,6.96-4.45,0-7.69-1.16-10.07-3.05-2.37-1.89-3.9-4.54-4.83-7.58-.42-1.34-.59-2.54-.59-3.62,0-3.44,1.79-5.68,3.63-7.12.92-.72,1.84-1.22,2.53-1.54.35-.16.63-.28.83-.35.1-.04.18-.06.23-.08l.07-.02c22.95-7.19,35.27-15.91,42.06-25.01s8.01-18.55,8.9-27.03c.19-1.89.3-3.85.3-5.81,0-5.19-.77-10.38-2.93-14.35-1.08-1.98-2.51-3.65-4.37-4.83-1.86-1.17-4.14-1.84-6.86-1.84-5.76.01-13.49,2.92-23.94,10.16-11.41,7.9-18.29,15.24-22.29,24.18-4,8.93-5.11,19.39-5.11,33.51s1.05,30.94,1.56,53.64c.02.96.03,1.91.03,2.83,0,20.35-5.08,32.36-12,39.28s-15.76,8.84-23.44,8.84c-4.71,0-8.97-.72-12.05-1.45-1.54-.36-2.79-.72-3.65-.99-.43-.14-.76-.25-.99-.33-.22-.08-.34-.12-.34-.12l-.15.47.24-.44-.24.44Z"/>
  <path class="st2" d="M549.05,524.2s54.65,20.78,53.11-48.55c-1.55-69.42-8.17-87.5,25.63-110.9,33.82-23.46,38.75-.85,37.01,16.2-1.77,16.94-4.83,37.27-50.61,51.62,0,0-10.22,3.13-7.04,13.35,3.12,10.3,13.14,16.57,39.73,3.98,26.57-12.64,83.66-41.53,58.55-108.5-25.13-66.88-80.77-33.39-97.42,7.95,0,0-9.85,18.95-7.53,2.45,2.37-16.57,11.67-35.94-11.06-35.66-22.73.38-38.5-2.97-40.63,51.04-2.22,53.97-12.63,149.9.26,157.02Z"/>
  <path class="st2" d="M461.12,355.12s9.4-14.78-10.94-12.18c-20.42,2.61-68.2,9.92-73.86,91.95-5.68,81.97,114.73,92.55,137.67,42.4,22.93-50.25,23.93-83,9.06-108.66-14.83-25.62-25.61-19.44-35.53-16.23-9.75,3.2-41.34,15.08-32.34,20.26,9.08,5.23,29.72,11.17,25.79,52.28-3.96,41.16-15.81,63.12-43.8,40.09-27.93-23.05-8.59-93.54,23.95-109.91Z"/>
  <path class="st1" d="M461.12,355.12l.42.27s.56-.89,1.12-2.18c.56-1.3,1.12-3.01,1.12-4.75.01-1.58-.5-3.22-1.95-4.41s-3.76-1.91-7.29-1.91c-1.3,0-2.77.1-4.43.31-10.22,1.31-27.39,3.8-42.72,16.3-15.33,12.51-28.74,35.01-31.58,76.11-.13,1.9-.2,3.75-.2,5.57-.01,22.9,10.19,39.88,25.11,51.06,14.92,11.19,34.53,16.64,53.45,16.65,13.06,0,25.79-2.6,36.43-7.72,10.64-5.12,19.19-12.79,23.83-22.92,13.02-28.55,19-51.48,19-70.73,0-14.68-3.49-27.21-9.96-38.39-4.46-7.71-8.57-12.58-12.45-15.54-3.87-2.96-7.53-3.99-10.96-3.99-4.59,0-8.76,1.8-12.71,3.08-4.3,1.41-12.79,4.49-20.23,7.95-3.72,1.73-7.18,3.56-9.73,5.33-1.28.89-2.33,1.76-3.08,2.63s-1.22,1.74-1.23,2.65c0,.51.16,1.01.48,1.44.32.44.77.82,1.37,1.16,4.21,2.42,10.69,4.93,16.14,10.83,5.44,5.89,9.89,15.16,9.89,31.24,0,3-.16,6.23-.49,9.72-1.42,14.83-3.88,27.14-7.72,35.69-1.92,4.28-4.17,7.6-6.79,9.85-2.62,2.24-5.58,3.42-9.01,3.42-5.28.01-11.73-2.85-19.47-9.22-9.22-7.6-13.26-20.55-13.25-35.07,0-14.33,3.93-30.17,10.54-43.74,6.61-13.58,15.92-24.89,26.57-30.25l.12-.06.07-.12-.41-.26-.22-.45c-10.95,5.51-20.34,16.99-27.02,30.7-6.68,13.71-10.64,29.66-10.64,44.18s4.07,27.96,13.62,35.85c7.83,6.44,14.46,9.44,20.11,9.45,3.66,0,6.89-1.28,9.66-3.66,4.15-3.57,7.31-9.55,9.72-17.42,2.41-7.87,4.06-17.63,5.13-28.79.34-3.52.49-6.79.49-9.82,0-16.26-4.53-25.84-10.16-31.92-5.62-6.08-12.28-8.65-16.37-11.01-.51-.29-.85-.59-1.05-.88-.21-.29-.29-.56-.29-.86-.01-.53.31-1.22.98-1.99,1.17-1.35,3.34-2.89,6.04-4.43,8.11-4.63,20.97-9.36,26.56-11.19,4.01-1.3,8.08-3.03,12.4-3.03,3.23,0,6.62.94,10.35,3.78,3.72,2.84,7.77,7.61,12.19,15.25,6.39,11.03,9.83,23.36,9.83,37.88,0,19.04-5.92,41.85-18.91,70.32-4.52,9.88-12.87,17.39-23.35,22.44-10.48,5.05-23.07,7.62-36,7.62-18.73,0-38.15-5.41-52.85-16.45s-24.71-27.67-24.71-50.26c0-1.8.06-3.63.19-5.51,2.83-40.92,16.13-63.09,31.21-75.41,15.08-12.31,32.01-14.78,42.21-16.09,1.63-.21,3.06-.3,4.31-.3,3.4,0,5.47.7,6.65,1.68,1.18.98,1.58,2.25,1.59,3.64,0,1.52-.51,3.13-1.04,4.36-.26.61-.53,1.13-.72,1.49-.1.18-.18.32-.24.41-.06.1-.09.14-.09.14l.42.28-.22-.45.22.45Z"/>
  <path class="st2" d="M461.12,355.12s9.4-14.78-10.94-12.18c-20.42,2.61-68.2,9.92-73.86,91.95-5.68,81.97,114.73,92.55,137.67,42.4,22.93-50.25,23.93-83,9.06-108.66-14.83-25.62-25.61-19.44-35.53-16.23-9.75,3.2-41.34,15.08-32.34,20.26,9.08,5.23,29.72,11.17,25.79,52.28-3.96,41.16-15.81,63.12-43.8,40.09-27.93-23.05-8.59-93.54,23.95-109.91Z"/>
  <g>
    <path class="st1" d="M1285.88,260.06s.03-.02.04-.03c.02-.02.04-.04.07-.06l-.11.09Z"/>
    <path class="st1" d="M1236.02,327.89v-.07s0,.09,0,.07Z"/>
    <path class="st1" d="M1079.88,492.92h-.05.05Z"/>
    <path d="M1461.95,105.71c-.72-.09-36.39-4.35-94.5-4.35-72.75.01-180.69,6.66-299.33,36.84-7.34,1.87-14.73,3.83-22.15,5.88,4.68-32.66,11.24-66.54,20.06-101.56,2.62-10.41-2.51-21.27-12.22-25.84-9.71-4.58-21.35-1.64-27.72,7.01-.8,1.09-26.59,36.27-52.35,97.63-6.66,15.87-13.31,33.51-19.52,52.74-22.94,8.71-45.99,18.43-68.97,29.28-58.33,27.54-116.26,62.33-171.02,106.2-2.76-4-5.76-7.67-9.04-10.95-5.75-5.75-12.38-10.3-19.5-13.3-7.11-3.01-14.65-4.42-21.9-4.41-4.62,0-9.14.55-13.46,1.53-7.58,1.72-14.58,4.71-20.99,8.48-4.81,2.84-9.3,6.12-13.48,9.75-.33.29-.65.58-.98.88-1.31-1.06-2.68-2.02-4.09-2.84-3.49-2.03-7.12-3.28-10.61-4.03-3.5-.75-6.9-1.02-10.3-1.02-.25,0-.51,0-.79.01h-.07c-2.54.04-5.27.03-8.24.09-2.6.05-5.4.15-8.46.47-2.67.28-5.56.73-8.63,1.53-2.69.7-5.52,1.69-8.36,3.09-2.48,1.21-4.96,2.74-7.29,4.56-2.03,1.59-3.95,3.4-5.67,5.37-3.03,3.45-5.47,7.34-7.41,11.44-1.46,3.08-2.65,6.3-3.65,9.67-.9,3.03-1.63,6.22-2.26,9.56-.67-.65-1.36-1.3-2.06-1.91-1.91-1.68-3.94-3.21-6.1-4.56-3.23-2.03-6.76-3.62-10.36-4.64-3.59-1.03-7.2-1.46-10.47-1.45-2.6,0-4.99.26-7.11.62-3.19.55-5.77,1.33-7.83,1.99-2.05.67-3.58,1.22-4.54,1.53l-.09.03c-.2.07-.41.14-.62.21-.37-.46-.74-.92-1.14-1.36-1.77-1.97-3.84-3.66-5.96-4.97-3.2-1.98-6.46-3.15-9.5-3.84-3.06-.68-5.93-.92-8.75-.92-2.41,0-4.79.18-7.23.49-2.66.34-6.13.8-10.07,1.53-6.91,1.29-15.37,3.43-24.33,7.51-6.71,3.05-13.71,7.21-20.39,12.83-5.01,4.21-9.83,9.22-14.22,15.08-1.64,2.19-3.22,4.49-4.73,6.91-1.47-20.39-2.28-41.6-2.28-63.59,0-4.67.04-9.38.11-14.12,103.45-44.29,243.69-87.75,425.44-110.75,11.25-1.42,19.71-11.05,19.68-22.39s-8.55-20.92-19.81-22.27c-.72-.09-36.39-4.35-94.5-4.35-72.75.01-180.69,6.66-299.32,36.84-7.34,1.87-14.73,3.83-22.15,5.88,4.68-32.66,11.24-66.54,20.06-101.56,2.62-10.41-2.51-21.27-12.22-25.84-9.71-4.58-21.35-1.64-27.72,7.01-.8,1.09-26.59,36.27-52.35,97.63-6.66,15.87-13.31,33.51-19.52,52.74-22.94,8.71-45.98,18.43-68.96,29.28-61.51,29.03-122.61,66.16-180,113.49-.72.6-1.07.92-1.73,1.59-.43.44-1.27,1.33-2.36,2.67-1.62,2.03-3.83,5.05-5.88,9.37-1.02,2.16-1.98,4.65-2.72,7.52-.74,2.86-1.24,6.12-1.24,9.67,0,2.21.2,4.52.64,6.88.66,3.53,1.88,7.14,3.65,10.53,1.76,3.39,4.05,6.56,6.7,9.39l.08.08c2,2.11,4.2,4.04,6.58,5.71,3.52,2.48,7.42,4.36,11.35,5.54.24,3.25.94,6.64,2.17,9.89,1.55,4.13,3.89,7.99,6.72,11.34h0c1.88,2.23,4.01,4.3,6.36,6.1,3.52,2.71,7.55,4.8,11.66,6.11,4.12,1.32,8.29,1.88,12.22,1.87,4.88,0,9.39-.82,13.56-2.05,6.25-1.87,11.77-4.65,16.92-7.88,5.14-3.25,9.89-7,14.35-11.06l-.06.06c.49-.45,1.09-.99,1.87-1.69,3-2.69,8.61-7.64,17.1-14.46,19.08-15.31,52.58-39.92,101.88-67.88-1.77,19.21-2.77,39.16-2.77,59.81,0,48.73,5.49,101.26,18.96,156.64,13.46,55.38,34.91,113.59,66.7,173.68.44.83.55,1.01,1.06,1.79.43.65,1.54,2.29,3.41,4.49,1.41,1.65,3.25,3.63,5.58,5.73,3.5,3.14,8.14,6.6,14.16,9.39,3.01,1.39,6.36,2.6,10.03,3.46,3.66.86,7.63,1.36,11.79,1.36,1.72,0,3.47-.09,5.24-.26h.07c4.28-.45,8.58-1.41,12.81-3.22,3.08-1.32,6.09-3.14,8.79-5.44,1.93,1.09,4,2.12,6.26,3.01,2.6,1.03,5.42,1.88,8.42,2.48,3,.59,6.17.92,9.43.92.97,0,1.95-.03,2.94-.09h-.01c4.14-.24,8.38-.98,12.66-2.61,3.2-1.22,6.41-2.97,9.3-5.31,2.17-1.74,4.14-3.81,5.78-6.05,2.47-3.37,4.15-7.09,5.14-10.65.99-3.57,1.34-6.99,1.35-10.16,0-3.57-.44-6.86-1.1-9.99-1-4.69-2.51-9.03-4.33-13.27-1.82-4.23-3.96-8.35-6.35-12.4l-.02-.03c-.53-.9-1.29-2.18-2.33-3.97-3.87-6.7-11.49-20.43-20.79-40.67-13.28-28.89-29.94-70.99-43.75-124.41,8.29,4.64,17.09,8.05,26.08,10.36,9.83,2.52,19.9,3.74,29.86,3.75,7.99,0,15.92-.79,23.64-2.41,5.79-1.22,11.46-2.9,16.93-5.11,8.2-3.31,15.99-7.8,22.87-13.76,1.09-.95,2.15-1.94,3.19-2.96.16,2.15.35,4.24.59,6.28.3,2.46.66,4.86,1.14,7.24.36,1.79.79,3.57,1.35,5.4.42,1.38.9,2.78,1.52,4.25.93,2.2,2.12,4.57,4.03,7.15.96,1.29,2.11,2.62,3.55,3.94,1.43,1.32,3.15,2.62,5.17,3.73.82.45,2,1,2.88,1.34.72.27,3.53,1.31,7.88,2.33,4.36,1.01,10.25,2.04,17.31,2.06,5.75-.01,12.32-.7,19.28-3.01,5.2-1.73,10.6-4.42,15.6-8.31,3.75-2.91,7.24-6.48,10.24-10.6,2.25-3.09,4.23-6.48,5.91-10.11,2.52-5.45,4.37-11.44,5.59-17.93,1.17-6.25,1.77-12.99,1.81-20.3,4.8-.21,9.53-1.07,14.37-2.42,5.57-1.56,11.3-3.79,17.46-6.7l.04-.02c2.82-1.34,6.11-2.92,9.68-4.76,6.26-3.21,13.41-7.18,20.74-12.16,5.5-3.73,11.1-8.04,16.5-13.07,4.05-3.77,7.98-7.95,11.62-12.62,5.03-6.44,9.5-13.83,12.84-22.15.41.53.82,1.05,1.25,1.56h.01c1.88,2.23,4.01,4.3,6.36,6.1,3.52,2.71,7.55,4.8,11.66,6.11,4.12,1.32,8.29,1.88,12.22,1.87,4.88,0,9.39-.82,13.55-2.05,6.25-1.86,11.77-4.65,16.92-7.88,5.14-3.25,9.89-6.99,14.34-11.06.48-.44,1.06-.96,1.81-1.64,3-2.69,8.61-7.64,17.1-14.46,19.08-15.31,52.58-39.92,101.88-67.88-1.77,19.21-2.77,39.16-2.77,59.81,0,48.73,5.49,101.27,18.96,156.65,13.46,55.38,34.91,113.59,66.7,173.68.44.83.54,1.01,1.06,1.79.43.65,1.54,2.28,3.41,4.49,1.41,1.65,3.25,3.63,5.58,5.73,3.5,3.14,8.13,6.59,14.16,9.39,3.01,1.39,6.36,2.6,10.03,3.46,3.66.86,7.63,1.36,11.79,1.36,1.73,0,3.48-.09,5.25-.26h.06c4.28-.45,8.58-1.4,12.81-3.22,3.08-1.32,6.09-3.14,8.79-5.44,1.93,1.09,4.01,2.12,6.27,3.02,2.6,1.03,5.42,1.88,8.42,2.48,3,.59,6.17.92,9.43.92.97,0,1.95-.03,2.93-.09,4.13-.25,8.38-.98,12.66-2.61,3.2-1.22,6.41-2.97,9.3-5.31,2.17-1.75,4.14-3.81,5.78-6.05,2.47-3.37,4.15-7.09,5.14-10.65.99-3.57,1.34-6.99,1.35-10.16,0-3.57-.44-6.86-1.1-9.99-1-4.69-2.51-9.03-4.33-13.27-1.82-4.23-3.96-8.35-6.35-12.4l-.02-.03c-.53-.9-1.29-2.18-2.33-3.98-3.87-6.7-11.49-20.43-20.79-40.67-13.44-29.24-30.35-72.02-44.25-126.36,5.49,2.38,11.22,3.82,16.87,4.48,1.51.18,3.03.27,4.54.27,4.12,0,8.12-.67,11.75-1.81,3.41-1.07,6.5-2.52,9.29-4.17,5.22-3.11,9.4-6.86,13.02-10.79,2.84-3.09,5.32-6.33,7.61-9.64,1.99,2.23,4.17,4.28,6.52,6.07,4.15,3.17,8.8,5.53,13.48,6.98,4.68,1.47,9.35,2.06,13.72,2.06,3.54,0,6.89-.38,10.05-.99,4.74-.92,9.04-2.37,12.97-4.04,3.93-1.68,7.5-3.61,10.74-5.64h.01c4.96-3.12,8.91-6.94,12.08-10.91.58-.73,1.13-1.46,1.65-2.19,2.11,1.28,4.42,2.36,6.83,3.12,3.36,1.08,6.86,1.56,10.2,1.56,2.69,0,5.27-.3,7.74-.81s4.83-1.23,7.11-2.09l.08-.03c5.6-2.14,10.7-5.21,14.99-8.82,3.76-3.15,6.91-6.68,9.52-10.29,2.29-3.16,4.19-6.38,5.83-9.58,2.86-5.6,4.95-11.13,6.79-16.47,1.37-4.01,2.58-7.91,3.76-11.66,1.23-3.93,2.44-7.67,3.69-11.19.84.81,1.73,1.58,2.68,2.31,2.64,2.01,5.73,3.58,8.78,4.51,3.05.95,6,1.28,8.53,1.27,2.24,0,4.17-.25,5.8-.55,2.43-.46,4.21-1.04,5.43-1.45.6-.2,1.06-.37,1.35-.47.12-.04.21-.07.26-.09.17-.05.45-.12.83-.23,1.06-.3,2.81-.84,4.82-1.74,1.76-.78,3.74-1.85,5.69-3.24,1.42-1,2.81-2.17,4.13-3.46l-.35,49.82c-.07,9.1,5.32,17.31,13.7,20.87.69.29,3.48,1.45,7.79,2.64,2.16.59,4.7,1.19,7.58,1.65,2.89.46,6.12.8,9.7.8,4.33-.01,9.21-.48,14.46-2.12,3.92-1.22,8.05-3.15,11.91-5.98,2.9-2.11,5.62-4.73,7.94-7.72,1.74-2.24,3.26-4.69,4.53-7.27,1.9-3.87,3.24-8,4.1-12.28s1.24-8.72,1.24-13.37c0-.37,0-.74-.01-1.1v-.06c-.06-4.04-.22-8.31-.41-12.8-.29-6.73-.66-13.93-.96-21.31-.3-7.38-.52-14.94-.52-22.3,0-8.38.29-16.51,1.04-23.68.55-5.37,1.36-10.2,2.36-14.09.74-2.92,1.59-5.3,2.38-6.98.59-1.26,1.13-2.13,1.5-2.62.11-.15.2-.25.27-.34h.09c11.2,0,20.74-8.3,22.29-19.4.03-.25.29-2.07.54-4.77.25-2.72.52-6.28.52-10.28,0-1.88-.06-3.86-.25-6.01-.15-1.62-.36-3.33-.77-5.26-.31-1.45-.71-3.03-1.38-4.85-.5-1.36-1.16-2.87-2.13-4.54-.73-1.25-1.64-2.61-2.86-4.01-.91-1.05-1.99-2.13-3.28-3.16-1.92-1.55-4.33-2.99-7.04-3.97-2.7-.99-5.66-1.48-8.39-1.47-.28,0-.56.02-.84.03.47-1.98,1.04-3.82,1.68-5.42,1.1-2.79,2.4-4.86,3.29-5.9.4-.48.69-.73.81-.83,2.94-1.21,5.79-2.9,8.27-5,1.96-1.65,3.69-3.55,5.14-5.56,2.17-3.03,3.67-6.3,4.6-9.5.93-3.21,1.31-6.35,1.31-9.34-.01-4.82-.97-9.28-2.6-13.44-1.23-3.12-2.86-6.07-4.91-8.83-1.54-2.07-3.32-4.03-5.36-5.82-3.05-2.69-6.71-5.02-10.86-6.65-4.15-1.64-8.79-2.54-13.48-2.54-3.32,0-6.66.44-9.89,1.28-3.23.83-6.35,2.05-9.32,3.57l.06-.03c-2.78,1.42-5.73,2.98-8.79,4.83-2.67,1.61-5.43,3.44-8.2,5.57-4.83,3.71-9.66,8.38-13.86,14.08-3.16,4.27-5.96,9.08-8.33,14.38-3.56,7.96-6.17,16.98-7.94,27.35-.95,5.57-1.66,11.55-2.15,18-1.93,1.02-3.9,2.27-5.83,3.85-.05.04-.09.08-.14.12-.3-.25-.61-.5-.93-.75-2.29-1.76-5.09-3.38-8.28-4.51-3.18-1.14-6.72-1.75-10.17-1.74-2.53,0-5,.31-7.33.85-3.51.81-6.68,2.12-9.6,3.69-2.9,1.57-5.57,3.42-8.15,5.51-3.37,2.72-6.13,5.58-8.73,8.55-1.16,1.33-2.28,2.69-3.37,4.07-.98-1.1-2.1-2.18-3.36-3.19-2.35-1.89-5.22-3.49-8.23-4.5-3.01-1.02-6.11-1.46-8.92-1.45-2.15,0-4.12.25-5.95.62-1.36.16-3.48.45-6.13.91-3.26.57-7.31,1.41-11.78,2.69-3.36.96-6.96,2.17-10.7,3.78-2.8,1.21-5.69,2.65-8.61,4.48-2.19,1.37-4.4,2.95-6.57,4.86-1.63,1.43-3.24,3.05-4.77,4.89-2.29,2.76-4.4,6.08-5.95,9.91-1.55,3.81-2.5,8.12-2.62,12.45v.06c-.06,2.1-.1,4.57-.12,7.43-.02,2.85-.03,6.06-.03,9.55,0,11.5.11,25.97.22,39.36.03,3.61.06,7.14.09,10.51-.11-1.8-.23-3.63-.34-5.47-.57-9.32-1.15-18.96-1.6-27.39-.23-4.21-.42-8.12-.58-11.5-.15-3.38-.26-6.26-.31-8.32v.12c-.1-4.74-.71-9.36-2.24-13.95-1.14-3.43-2.83-6.84-5.14-9.91-1.72-2.3-3.79-4.38-6.03-6.09-1.68-1.28-3.45-2.35-5.21-3.21-2.65-1.29-5.26-2.09-7.66-2.57s-4.6-.64-6.56-.64c-4.02.01-7.09.64-9.38,1.23-.86.23-1.62.45-2.26.67-7.46,1.79-14.19,4.21-20.3,7.63-2.84,1.59-5.52,3.4-8.01,5.43-2.33,1.9-4.47,3.99-6.38,6.23-.69.81-1.35,1.64-1.97,2.48-.87-.96-1.79-1.89-2.8-2.74-1.67-1.42-3.51-2.65-5.39-3.63-2.82-1.48-5.7-2.43-8.42-2.99-2.73-.56-5.32-.76-7.8-.77-4.42.01-8.52.62-12.77,1.57h-.04c-4.93,1.13-9.5,2.63-13.69,4.46-7.21,3.14-13.25,7.3-18,11.83-.65-13.73-1-27.8-1-42.22,0-4.67.04-9.38.11-14.12,103.45-44.29,243.69-87.75,425.44-110.75,11.25-1.42,19.71-11.05,19.68-22.39,0-11.32-8.52-20.89-19.78-22.25ZM443.94,392.15s.01.01.01.01h-.01ZM458.57,422.78c-.65,6.79-1.53,12.81-2.58,17.74-.75,3.55-1.59,6.52-2.4,8.77-.65-.48-1.35-1.01-2.11-1.64-.55-.46-1.08-1.03-1.66-1.89-.86-1.28-1.79-3.27-2.48-6.04-.69-2.76-1.11-6.25-1.11-10.17-.01-5.16.73-11.05,2.17-16.96,1.08-4.43,2.54-8.88,4.3-13.06.27-.65.56-1.29.84-1.93.57.44,1.03.87,1.44,1.32.4.45.77.93,1.16,1.58.57.98,1.22,2.36,1.79,4.67.56,2.3,1.02,5.54,1.02,9.97,0,2.25-.1,4.79-.38,7.64ZM585.63,452.45s.02.07.03.1c.01.02.01.05.02.07l-.05-.17ZM640.91,388.13c-.51,1.8-1.09,3.22-1.95,4.67-.65,1.08-1.47,2.2-2.71,3.49-1.86,1.92-4.71,4.25-9.33,6.82-.82.46-1.72.92-2.65,1.39.36-1.95.79-3.54,1.27-4.89.48-1.35,1-2.48,1.65-3.6.98-1.67,2.26-3.37,4.36-5.47,2.1-2.08,5.04-4.51,9.05-7.29h.02c.48-.34.94-.65,1.39-.95-.31,2.3-.65,4.23-1.1,5.83ZM1422.23,230.85s.01,0,.01,0h-.01Z"/>
    <path class="st1" d="M804.26,400.12h0s-.04.04-.06.06l.06-.06Z"/>
  </g>
  <path class="st2" d="M1043.36,351.86s1.83-22.16,30.83-28.74c29.07-6.53,13.75,19.59,13.4,41.34-.38,21.77-7.04,86.01,18.33,41.32,25.37-44.64-8.19-84.56,43.6-96.22,0,0,15.17-6.39,15.55,13.31.48,19.77,5.15,88.7,5.15,88.7,0,0-.19,23.52,14.95,6.82,15.31-16.57,15.08,22.06-3.56,33.75-18.66,11.68-51.25,17.85-50.99-51.57,0,0-19.67,73.37-48.12,70-28.53-3.32-45.29-33.98-39.14-118.71Z"/>
  <path class="st2" d="M1212.93,403.36s-8.12,45.51,18.25,35.5c26.31-10.11,23.75-48.9,41.71-76.11,18.06-27.27,19.26-26.33,21.42-3.28,2.25,23.07,10.97,17.9,15.61,16.45,4.67-1.56,22.6-1.3,10.99-92.09,0,0-3.22-20.61-20.84-6.3-17.74,14.22-41.69,68.03-41.55,50.57.11-17.31,5.99-45.54-7.49-41.74,0,0-37.71,3.47-38.3,22.43-.54,18.96.61,91.33.2,94.57Z"/>
  <path class="st2" d="M1355.21,305.75l-.95,132.96s38.48,16.36,37.95-23.75c-.61-40.08-11.79-126.95,28.26-126.95,0,0,3.3-23.71-3.13-22.71-6.49.75-23.21,13.35-24.16-8.32-.91-21.68,8-41.97,20.76-47.04,12.85-5.1,2-31.39-18.1-21.09-20.16,10.26-37,22.82-37.73,82.27,0,0-17.38-2.57-17.78,13.58-.45,16.28,4.03,19.62,14.79,18.9"/>
  <path class="st2" d="M1014.49,246.22c106.53-47.07,253.1-93.92,444.78-118.17,0,0-208.02-25.03-439.87,47.31,4.69-43.89,12.68-90.08,24.83-138.33,0,0-42.39,57.56-71.81,154.26-85.76,31.48-173.06,77.11-252.86,142.92,0,0-12.34,12.56-.82,24.89,11.58,12.26,27.78,2.75,35.5-3.99,0,0,50.13-59.98,207.71-125.13-.82,3.45-1.62,6.94-2.39,10.48-77.48,34.35-156.1,77.67-209.14,128.29,0,0-14.24,11.63-4.01,23.78,10.26,12.15,27.88,4.51,42.68-9.02,7.31-6.63,59.26-54.28,163.78-107.92-18.27,113.14-10.37,258.86,74.97,420.16,0,0,10.44,15.96,29.16,14.1,18.73-1.92,13.26-19.03,7.89-28.44,0,0-99.7-129.36-82.24-420.55.49-.23.97-.46,1.46-.7-.51,76.85,6.79,288.68,95.65,431.5,0,0,8.83,16.83,26.87,15.78,18.03-1.05,15.24-18.12,4.38-36.54-8.64-14.55-104.36-174.81-96.52-424.68ZM1016.4,208.92c54.87-19.86,120.13-39.65,197.4-57.86,0,0-91.27,23.5-197.93,65.8.17-2.64.34-5.28.53-7.94Z"/>
  <path class="st2" d="M349.26,271.87c106.53-47.07,253.1-93.92,444.77-118.17,0,0-208.02-25.03-439.87,47.31,4.69-43.89,12.68-90.09,24.83-138.33,0,0-42.39,57.56-71.81,154.27-85.76,31.48-173.06,77.11-252.86,142.92,0,0-12.34,12.56-.82,24.88,11.58,12.26,27.78,2.76,35.5-3.98,0,0,50.13-59.99,207.71-125.13-.82,3.45-1.62,6.95-2.39,10.48-77.48,34.35-156.1,77.67-209.14,128.29,0,0-14.24,11.63-4.01,23.77,10.26,12.15,27.88,4.52,42.68-9.02,7.31-6.63,59.26-54.28,163.78-107.92-18.27,113.13-10.37,258.86,74.97,420.16,0,0,10.44,15.96,29.16,14.1,18.73-1.92,13.26-19.03,7.89-28.45,0,0-99.7-129.36-82.25-420.55.49-.23.97-.46,1.46-.7-.51,76.85,6.79,288.68,95.65,431.5,0,0,8.83,16.83,26.87,15.78,18.03-1.05,15.24-18.12,4.38-36.54-8.62-14.54-104.34-174.8-96.5-424.67ZM351.18,234.57c54.87-19.86,120.13-39.65,197.4-57.86,0,0-91.27,23.5-197.93,65.8.16-2.64.34-5.28.53-7.94Z"/>
  <path class="st2" d="M549.05,524.2s54.65,20.78,53.11-48.55c-1.55-69.42-8.17-87.5,25.63-110.9,33.82-23.46,38.75-.85,37.01,16.2-1.77,16.94-4.83,37.27-50.61,51.62,0,0-10.22,3.13-7.04,13.35,3.12,10.3,13.14,16.57,39.73,3.98,26.57-12.64,83.66-41.53,58.55-108.5-25.13-66.88-80.77-33.39-97.42,7.95,0,0-9.85,18.95-7.53,2.45,2.37-16.57,11.67-35.94-11.06-35.66-22.73.38-38.5-2.97-40.63,51.04-2.22,53.97-12.63,149.9.26,157.02Z"/>
  <path class="st2" d="M461.12,355.12s9.4-14.78-10.94-12.18c-20.42,2.61-68.2,9.92-73.86,91.95-5.68,81.97,114.73,92.55,137.67,42.4,22.93-50.25,23.93-83,9.06-108.66-14.83-25.62-25.61-19.44-35.53-16.23-9.75,3.2-41.34,15.08-32.34,20.26,9.08,5.23,29.72,11.17,25.79,52.28-3.96,41.16-15.81,63.12-43.8,40.09-27.93-23.05-8.59-93.54,23.95-109.91Z"/>
  <path class="st0" d="M1232.43,627.6c-7.07-6.94-16.85-11.23-27.64-11.23s-20.57,4.29-27.65,11.23c-7.08,6.94-11.47,16.53-11.47,27.11s4.39,20.21,11.47,27.13c7.08,6.93,16.86,11.2,27.65,11.2s20.56-4.28,27.64-11.2c7.07-6.93,11.46-16.52,11.46-27.13s-4.38-20.18-11.46-27.11ZM1227.72,675.89l-5.75-8.98h0c-2.03-3.22-3.65-5.55-4.98-6.89h0l-.02-.02h0c-.89-.96-1.95-1.83-3.15-2.65,2.95-.67,5.3-1.87,6.95-3.77h0l.02-.02h.01c2.02-2.14,2.99-4.96,2.98-8.23,0-2.58-.62-4.92-1.94-6.97h0c-1.31-2.12-3.1-3.55-5.33-4.35-2.24-.8-5.59-1.2-10.18-1.21h-18.82v43.4h10.13v-17.46h.99c1.92,0,3.31.15,4.05.43h.02s.02.02.02.02c.74.22,1.53.75,2.28,1.51.74.84,2.24,2.88,4.44,6.07l6.42,9.43h11.57c-.1.1-.19.21-.29.31-5.72,5.58-13.62,9.03-22.35,9.03s-16.63-3.45-22.35-9.03-9.25-13.28-9.25-21.8,3.53-16.19,9.25-21.78,13.62-9.05,22.35-9.05,16.63,3.46,22.35,9.05c5.72,5.59,9.26,13.29,9.26,21.78s-3.31,15.65-8.68,21.18ZM1213.48,645.87c0,1.18-.29,2.04-.75,2.73-.46.68-1.13,1.19-2.01,1.5-.4.13-1.28.27-2.53.36-1.26.09-2.92.14-4.96.14h-5.59v-9.19h5.95c3.44,0,5.5.07,6.17.13,1.22.19,2.1.65,2.76,1.39.62.74.96,1.71.96,2.94Z"/>
</svg>